<svg xmlns="http://www.w3.org/2000/svg" xmlns:xlink="http://www.w3.org/1999/xlink" version="1.1" width="512.936pt" height="217.129pt" viewBox="0 0 512.936 217.129">
<defs>
<clipPath id="clip_0">
<path transform="matrix(1,0,0,-1,0,217.129)" d="M0 217.129H512.936V0H0Z"/>
</clipPath>
</defs>
<g id="layer_1" data-name="">
<g clip-path="url(#clip_0)">
<path transform="matrix(1,0,0,-1,231.7811,151.23529)" d="M0 0H-.013C-1.199 0-2.165 .959-2.171 2.148-2.178 3.341-1.216 4.313-.023 4.319 1.169 4.326 2.142 3.364 2.148 2.172 2.155 .979 1.193 .006 0 0M-6.915-3.808H-6.927C-8.115-3.808-9.081-2.848-9.087-1.659-9.094-.466-8.132 .506-6.938 .513-5.746 .519-4.774-.442-4.767-1.636-4.761-2.828-5.723-3.801-6.915-3.808M-11.006 32.33C-9.813 32.336-8.841 31.375-8.834 30.182-8.828 28.989-9.79 28.017-10.983 28.01H-10.994C-12.182 28.01-13.148 28.969-13.154 30.158-13.161 31.352-12.199 32.323-11.006 32.33M-25.76 19.703H-25.772C-26.96 19.703-27.925 20.662-27.932 21.851-27.938 23.044-26.977 24.016-25.784 24.022-24.591 24.029-23.619 23.067-23.612 21.874-23.606 20.682-24.567 19.709-25.76 19.703M-41.079 34.423H-41.091C-42.278 34.423-43.244 35.383-43.25 36.571-43.257 37.765-42.295 38.736-41.103 38.742-39.91 38.749-38.938 37.788-38.931 36.595-38.924 35.402-39.886 34.43-41.079 34.423M-43.263 56.02C-44.451 56.02-45.417 56.979-45.423 58.168-45.429 59.361-44.468 60.333-43.275 60.34-42.082 60.347-41.109 59.385-41.103 58.192-41.097 56.999-42.059 56.027-43.251 56.02ZM7.375 86.552C8.567 86.558 9.54 85.596 9.546 84.403 9.552 83.21 8.591 82.238 7.398 82.232H7.386C6.199 82.232 5.232 83.191 5.226 84.38 5.22 85.573 6.182 86.545 7.375 86.552M52.226 61.415H52.214C51.026 61.415 50.061 62.374 50.054 63.563 50.048 64.756 51.01 65.729 52.202 65.735 53.396 65.741 54.367 64.779 54.374 63.586 54.38 62.394 53.418 61.421 52.226 61.415M-99.978 45.68C-107.833 51.819-119.275 54.949-134.932 59.813-138.423 60.764-141.01 61.98-142.714 63.444H-142.715C-142.727 63.454-142.734 63.465-142.746 63.476-143.748 64.344-144.415 65.306-144.789 66.35-144.837 66.476-144.889 66.601-144.929 66.726-144.958 66.827-144.99 66.928-145.013 67.031-145.786 69.932-144.18 72.318-144.18 72.318L-144.076 72.462C-139.792 79.054-114.25 72.484-105.303 69.939L-101.745 69.108-92.935 91.378C-105.382 96.685-118.979 99.376-133.365 99.376-164.471 99.376-179.592 88.029-179.592 64.686-179.592 60.668-178.894 56.942-177.516 53.611-176.132 50.268-174.182 47.235-171.721 44.596-169.246 41.941-166.267 39.621-162.867 37.697-159.452 35.763-155.698 34.211-151.71 33.091-148.774 32.149-145.611 31.273-142.277 30.479-138.88 29.669-135.707 28.751-132.847 27.753-129.946 26.741-127.487 25.574-125.539 24.288-123.363 22.85-122.261 21.019-122.261 18.849-122.261 17.077-122.771 15.638-123.778 14.566-124.71 13.572-125.955 12.804-127.472 12.285-128.921 11.791-130.606 11.474-132.482 11.338-134.303 11.208-136.222 11.142-138.187 11.142-139.437 11.142-140.895 11.25-142.523 11.463-144.138 11.671-145.84 11.92-147.629 12.208-149.422 12.497-151.215 12.824-153.006 13.193L-157.994 14.211-170.162 16.938-178.755-5.979C-166.445-11.175-151.99-13.809-135.776-13.809-128.314-13.809-121.542-13.028-115.648-11.492-109.798-9.965-104.797-7.637-100.787-4.575-96.801-1.53-93.699 2.371-91.569 7.024-89.431 11.692-88.346 17.301-88.346 23.696-88.346 32.251-92.259 39.646-99.978 45.68M172.101 10.932H172.001C154.517 10.979 143.361 23.299 143.26 42.673 143.157 62.503 154.512 74.807 172.67 74.543 190.158 74.289 201.356 61.647 201.072 42.48 200.787 23.249 189.471 10.933 172.101 10.932M129.924 54.384C129.92 54.384 129.916 54.383 129.912 54.383 128.725 54.383 127.759 55.343 127.752 56.532 127.745 57.725 128.707 58.697 129.9 58.703 131.094 58.71 132.065 57.748 132.072 56.555 132.078 55.362 131.117 54.39 129.924 54.384M126.655 71.653C126.648 72.846 127.61 73.818 128.804 73.824 129.996 73.831 130.968 72.869 130.975 71.676 130.981 70.483 130.02 69.511 128.826 69.504H128.815C127.628 69.504 126.661 70.463 126.655 71.653M172.22 99.417H172.05C138.866 99.42 115.363 76.013 115.355 42.931 115.349 9.895 139.009-13.755 172.089-13.774 205.235-13.793 228.881 9.729 228.963 42.803 229.044 75.958 205.611 99.337 172.22 99.417M46.71 96.935 38.201 67.573 65.331 87.381C65.923 87.716 66.543 86.991 66.12 86.459L35.622 54.677C42.313 52.082 52.477 48.847 57.326 47.336 58.248 47.051 59.169 46.767 60.09 46.483L65.064 66.096C65.063 66.096 65.061 66.097 65.058 66.098L67.755 76.702 76.321 44.932 76.345 44.828C66.353 41.81 50.756 37.157 42.822 34.619 40.39 33.841 37.953 32.92 35.671 31.76L47.849 13.346C48.184 12.755 47.459 12.136 46.927 12.558L30.079 27.555C28.191 25.329 26.915 22.618 25.989 19.725 24.165 14.021 22.437 8.286 20.668 2.564 19.793-.268 18.916-3.108 18.013-6.031L18.017-6.042 17.237-8.542C16.995-9.326 16.662-10.274 16.415-11.076 15.016-6.544 13.56-1.729 12.259 2.479 10.491 8.2 8.763 13.936 6.938 19.64 6.148 22.108 5.103 24.445 3.64 26.462L-12.227 16.925C-12.817 16.59-13.437 17.314-13.014 17.847L-2.326 31.459C-4.727 32.722-7.312 33.708-9.894 34.533-18.802 37.384-27.779 40.036-37.223 42.91-27.779 45.784-18.802 48.437-9.894 51.286-6.813 52.272-3.722 53.48-.952 55.123 .343 55.891 1.458 56.815 2.421 57.861L-11.627 77.358C-11.996 77.928-11.31 78.59-10.753 78.2L6.259 64.268C6.504 64.895 6.731 65.533 6.938 66.181 8.763 71.884 10.491 77.62 12.259 83.341 13.613 87.72 15.027 92.262 16.484 96.975H-12.24C-13.827 91.818-15.373 86.75-17.017 81.611-18.46 77.097-20.75 73.018-24.907 70.553-27.677 68.911-30.769 67.703-33.849 66.717-39.855 64.796-45.906 62.961-52.096 61.091V64.569C-52.099 64.57-52.103 64.57-52.106 64.57V96.975H-80.007V-11.402H-52.106V24.731C-45.913 22.861-39.859 21.025-33.849 19.103-30.769 18.117-27.677 16.908-24.907 15.268-23.16 14.231-21.747 12.907-20.583 11.389L-18.996 8.936C-18.189 7.456-17.545 5.862-17.017 4.208-15.373-.93-12.172-11.402-12.172-11.402H16.415 45.072C46.649-6.275 48.312-.811 49.944 4.294 51.389 8.809 53.679 12.888 57.835 15.353 60.605 16.994 63.697 18.203 66.777 19.188 71.531 20.709 76.926 22.411 81.782 23.883L82.532 21.113 91.18-11.402H120.382L88.23 96.935Z" fill="#ffffff"/>
</g>
</g>
</svg>
