<?xml version="1.0" encoding="UTF-8"?>
<svg xmlns="http://www.w3.org/2000/svg" xmlns:xlink="http://www.w3.org/1999/xlink" width="392.67pt" height="144.25pt" viewBox="0 0 392.67 144.25" version="1.1">
<defs>
<clipPath id="clip1">
  <path d="M 0 103 L 392.671875 103 L 392.671875 105 L 0 105 Z M 0 103 "/>
</clipPath>
<clipPath id="clip2">
  <path d="M 119 121 L 134 121 L 134 144.25 L 119 144.25 Z M 119 121 "/>
</clipPath>
<clipPath id="clip3">
  <path d="M 379 114 L 392.671875 114 L 392.671875 138 L 379 138 Z M 379 114 "/>
</clipPath>
</defs>
<g id="surface1">
<g clip-path="url(#clip1)" clip-rule="nonzero">
<path style=" stroke:none;fill-rule:nonzero;fill:rgb(0%,0%,0%);fill-opacity:1;" d="M 392.078125 104.210938 L 0.914063 104.210938 L 0.914063 103.210938 L 392.078125 103.210938 L 392.078125 104.210938 "/>
</g>
<path style=" stroke:none;fill-rule:nonzero;fill:rgb(0%,0%,0%);fill-opacity:1;" d="M 35.070313 135.0625 C 34.835938 135.0625 34.648438 134.875 34.648438 134.640625 C 34.644531 134.410156 34.832031 134.21875 35.066406 134.21875 C 35.300781 134.214844 35.488281 134.402344 35.492188 134.636719 C 35.492188 134.871094 35.304688 135.058594 35.070313 135.0625 Z M 33.71875 135.804688 C 33.484375 135.804688 33.296875 135.617188 33.296875 135.386719 C 33.292969 135.152344 33.484375 134.960938 33.714844 134.960938 C 33.949219 134.960938 34.140625 135.148438 34.140625 135.382813 C 34.140625 135.613281 33.953125 135.804688 33.71875 135.804688 Z M 32.921875 128.746094 C 33.15625 128.746094 33.34375 128.933594 33.34375 129.167969 C 33.347656 129.398438 33.160156 129.589844 32.925781 129.589844 C 32.925781 129.589844 32.925781 129.589844 32.921875 129.589844 C 32.691406 129.589844 32.503906 129.402344 32.503906 129.171875 C 32.5 128.9375 32.6875 128.75 32.921875 128.746094 Z M 30.039063 131.214844 C 29.804688 131.214844 29.617188 131.027344 29.617188 130.792969 C 29.613281 130.5625 29.800781 130.371094 30.035156 130.371094 C 30.269531 130.367188 30.457031 130.558594 30.460938 130.789063 C 30.460938 131.023438 30.273438 131.210938 30.039063 131.214844 Z M 27.046875 128.339844 C 26.816406 128.339844 26.625 128.152344 26.625 127.917969 C 26.625 127.6875 26.8125 127.496094 27.042969 127.496094 C 27.277344 127.492188 27.46875 127.683594 27.46875 127.914063 C 27.46875 128.148438 27.28125 128.339844 27.046875 128.339844 Z M 26.621094 124.121094 C 26.390625 124.121094 26.203125 123.933594 26.199219 123.703125 C 26.199219 123.46875 26.386719 123.277344 26.621094 123.277344 C 26.851563 123.277344 27.042969 123.464844 27.042969 123.695313 C 27.046875 123.929688 26.859375 124.121094 26.625 124.121094 C 26.625 124.121094 26.621094 124.121094 26.621094 124.121094 Z M 36.511719 118.160156 C 36.742188 118.15625 36.933594 118.347656 36.933594 118.578125 C 36.9375 118.8125 36.75 119.003906 36.515625 119.003906 C 36.515625 119.003906 36.515625 119.003906 36.511719 119.003906 C 36.28125 119.003906 36.09375 118.816406 36.089844 118.582031 C 36.089844 118.351563 36.277344 118.160156 36.511719 118.160156 Z M 45.269531 123.066406 C 45.035156 123.066406 44.847656 122.882813 44.84375 122.648438 C 44.84375 122.414063 45.03125 122.226563 45.265625 122.222656 C 45.496094 122.222656 45.6875 122.410156 45.6875 122.644531 C 45.691406 122.878906 45.503906 123.066406 45.269531 123.066406 Z M 15.546875 126.140625 C 14.011719 124.941406 11.777344 124.332031 8.722656 123.382813 C 8.039063 123.195313 7.535156 122.957031 7.203125 122.671875 C 7.203125 122.671875 7.203125 122.671875 7.199219 122.671875 C 7.199219 122.667969 7.199219 122.667969 7.195313 122.664063 C 7 122.496094 6.871094 122.308594 6.796875 122.105469 C 6.785156 122.082031 6.757813 121.992188 6.753906 121.972656 C 6.601563 121.40625 6.914063 120.9375 6.914063 120.9375 L 6.9375 120.910156 C 7.773438 119.625 12.761719 120.90625 14.507813 121.402344 L 15.203125 121.566406 L 16.921875 117.21875 C 14.492188 116.179688 11.835938 115.65625 9.027344 115.65625 C 2.953125 115.65625 0 117.871094 0 122.429688 C 0 123.214844 0.136719 123.941406 0.40625 124.59375 C 0.675781 125.246094 1.054688 125.835938 1.539063 126.351563 C 2.019531 126.871094 2.601563 127.324219 3.265625 127.699219 C 3.933594 128.078125 4.667969 128.378906 5.445313 128.597656 C 6.019531 128.78125 6.636719 128.953125 7.285156 129.109375 C 7.949219 129.265625 8.570313 129.445313 9.128906 129.640625 C 9.695313 129.839844 10.175781 130.066406 10.554688 130.316406 C 10.980469 130.597656 11.195313 130.957031 11.195313 131.382813 C 11.195313 131.726563 11.097656 132.007813 10.898438 132.21875 C 10.71875 132.410156 10.472656 132.5625 10.179688 132.660156 C 9.894531 132.757813 9.566406 132.820313 9.199219 132.847656 C 8.84375 132.871094 8.46875 132.886719 8.085938 132.886719 C 7.839844 132.886719 7.554688 132.863281 7.238281 132.824219 C 6.921875 132.78125 6.589844 132.734375 6.242188 132.675781 C 5.890625 132.621094 5.542969 132.558594 5.191406 132.484375 L 4.21875 132.285156 L 1.839844 131.753906 L 0.164063 136.230469 C 2.566406 137.242188 5.390625 137.757813 8.554688 137.757813 C 10.015625 137.757813 11.335938 137.605469 12.488281 137.304688 C 13.628906 137.007813 14.605469 136.554688 15.390625 135.957031 C 16.167969 135.359375 16.773438 134.597656 17.1875 133.691406 C 17.605469 132.777344 17.820313 131.683594 17.820313 130.433594 C 17.820313 128.761719 17.054688 127.320313 15.546875 126.140625 Z M 68.679688 132.925781 C 68.671875 132.925781 68.664063 132.925781 68.660156 132.925781 C 65.246094 132.917969 63.066406 130.511719 63.046875 126.726563 C 63.027344 122.855469 65.242188 120.453125 68.789063 120.503906 C 72.207031 120.554688 74.390625 123.023438 74.335938 126.765625 C 74.28125 130.519531 72.070313 132.925781 68.679688 132.925781 Z M 60.441406 124.441406 C 60.207031 124.441406 60.019531 124.253906 60.019531 124.023438 C 60.015625 123.789063 60.207031 123.597656 60.4375 123.597656 C 60.671875 123.597656 60.859375 123.785156 60.863281 124.015625 C 60.863281 124.25 60.675781 124.441406 60.441406 124.441406 Z M 59.804688 121.070313 C 59.804688 120.835938 59.992188 120.644531 60.222656 120.644531 C 60.457031 120.644531 60.648438 120.832031 60.648438 121.0625 C 60.648438 121.296875 60.460938 121.488281 60.226563 121.488281 C 59.992188 121.488281 59.804688 121.300781 59.804688 121.070313 Z M 68.703125 115.648438 C 68.691406 115.648438 68.679688 115.648438 68.667969 115.648438 C 62.1875 115.644531 57.597656 120.21875 57.597656 126.679688 C 57.597656 133.128906 62.21875 137.746094 68.675781 137.75 C 75.148438 137.753906 79.765625 133.160156 79.78125 126.703125 C 79.800781 120.226563 75.222656 115.664063 68.703125 115.648438 Z M 44.191406 116.132813 L 42.53125 121.867188 L 47.828125 117.996094 C 47.945313 117.933594 48.066406 118.074219 47.984375 118.175781 L 42.027344 124.382813 C 43.335938 124.890625 45.320313 125.523438 46.265625 125.816406 C 46.445313 125.871094 46.625 125.929688 46.804688 125.984375 L 47.777344 122.152344 L 48.300781 120.082031 L 49.976563 126.285156 L 49.980469 126.308594 C 48.027344 126.898438 44.984375 127.804688 43.433594 128.300781 C 42.957031 128.453125 42.480469 128.632813 42.035156 128.859375 L 44.414063 132.457031 C 44.480469 132.570313 44.339844 132.691406 44.234375 132.609375 L 40.945313 129.679688 C 40.578125 130.113281 40.328125 130.644531 40.144531 131.210938 C 39.789063 132.324219 39.453125 133.441406 39.105469 134.5625 C 38.9375 135.113281 38.765625 135.667969 38.589844 136.238281 L 38.589844 136.242188 L 38.4375 136.730469 C 38.390625 136.882813 38.324219 137.066406 38.277344 137.222656 C 38.003906 136.339844 37.71875 135.398438 37.464844 134.578125 C 37.121094 133.460938 36.78125 132.339844 36.425781 131.226563 C 36.273438 130.742188 36.066406 130.285156 35.78125 129.894531 L 32.683594 131.757813 C 32.566406 131.820313 32.445313 131.679688 32.53125 131.578125 L 34.617188 128.917969 C 34.148438 128.671875 33.644531 128.480469 33.140625 128.316406 C 31.398438 127.761719 29.644531 127.242188 27.800781 126.683594 C 29.644531 126.121094 31.398438 125.601563 33.140625 125.046875 C 33.742188 124.851563 34.34375 124.617188 34.886719 124.296875 C 35.136719 124.148438 35.355469 123.964844 35.542969 123.761719 L 32.800781 119.957031 C 32.726563 119.84375 32.863281 119.714844 32.972656 119.789063 L 36.292969 122.511719 C 36.339844 122.390625 36.386719 122.265625 36.425781 122.136719 C 36.78125 121.023438 37.121094 119.902344 37.464844 118.785156 C 37.730469 117.929688 38.003906 117.042969 38.289063 116.125 L 32.679688 116.125 C 32.371094 117.132813 32.070313 118.121094 31.746094 119.125 C 31.464844 120.007813 31.019531 120.800781 30.207031 121.285156 C 29.664063 121.605469 29.0625 121.839844 28.460938 122.03125 C 27.289063 122.40625 26.105469 122.765625 24.898438 123.132813 L 24.898438 122.453125 C 24.898438 122.453125 24.894531 122.453125 24.894531 122.453125 L 24.894531 116.125 L 19.449219 116.125 L 19.449219 137.289063 L 24.894531 137.289063 L 24.894531 130.230469 C 26.105469 130.597656 27.285156 130.957031 28.460938 131.332031 C 29.0625 131.523438 29.664063 131.757813 30.207031 132.082031 C 30.546875 132.28125 30.824219 132.539063 31.050781 132.835938 L 31.359375 133.316406 C 31.519531 133.605469 31.644531 133.917969 31.746094 134.238281 C 32.070313 135.242188 32.695313 137.289063 32.695313 137.289063 L 43.871094 137.289063 C 44.179688 136.289063 44.503906 135.21875 44.824219 134.222656 C 45.105469 133.339844 45.554688 132.542969 46.363281 132.0625 C 46.90625 131.742188 47.511719 131.507813 48.109375 131.3125 C 49.039063 131.015625 50.09375 130.683594 51.042969 130.398438 L 51.1875 130.9375 L 52.875 137.289063 L 58.578125 137.289063 L 52.300781 116.132813 L 44.191406 116.132813 "/>
<path style=" stroke:none;fill-rule:nonzero;fill:rgb(0%,0%,0%);fill-opacity:1;" d="M 95.777344 118.390625 L 92.765625 118.390625 L 92.765625 126.214844 L 95.925781 126.214844 C 97.636719 126.214844 98.886719 125.875 99.671875 125.195313 C 100.460938 124.515625 100.855469 123.519531 100.855469 122.199219 C 100.855469 120.824219 100.441406 119.84375 99.613281 119.261719 C 98.789063 118.683594 97.507813 118.390625 95.777344 118.390625 Z M 95.925781 116.089844 C 98.542969 116.089844 100.476563 116.585938 101.726563 117.582031 C 102.976563 118.574219 103.601563 120.074219 103.601563 122.082031 C 103.601563 123.203125 103.394531 124.136719 102.980469 124.886719 C 102.566406 125.632813 102.039063 126.234375 101.402344 126.6875 C 100.761719 127.140625 100.085938 127.484375 99.378906 127.71875 L 105.164063 137.167969 L 102.066406 137.167969 L 96.957031 128.457031 L 92.765625 128.457031 L 92.765625 137.167969 L 90.109375 137.167969 L 90.109375 116.089844 L 95.925781 116.089844 "/>
<path style=" stroke:none;fill-rule:nonzero;fill:rgb(0%,0%,0%);fill-opacity:1;" d="M 111.246094 123.171875 C 110.003906 123.171875 109.027344 123.574219 108.308594 124.371094 C 107.589844 125.167969 107.160156 126.273438 107.023438 127.691406 L 115.082031 127.691406 C 115.0625 126.351563 114.746094 125.265625 114.136719 124.429688 C 113.527344 123.59375 112.5625 123.171875 111.246094 123.171875 Z M 111.273438 121.046875 C 112.613281 121.046875 113.773438 121.34375 114.757813 121.933594 C 115.742188 122.523438 116.492188 123.355469 117.015625 124.429688 C 117.535156 125.503906 117.796875 126.753906 117.796875 128.191406 L 117.796875 129.757813 L 106.964844 129.757813 C 107.003906 131.546875 107.460938 132.910156 108.335938 133.84375 C 109.210938 134.78125 110.4375 135.246094 112.011719 135.246094 C 113.015625 135.246094 113.90625 135.152344 114.683594 134.964844 C 115.460938 134.78125 116.261719 134.507813 117.089844 134.15625 L 117.089844 136.425781 C 116.28125 136.78125 115.484375 137.042969 114.699219 137.210938 C 113.910156 137.375 112.976563 137.460938 111.894531 137.460938 C 110.378906 137.460938 109.050781 137.15625 107.910156 136.542969 C 106.765625 135.9375 105.875 135.03125 105.238281 133.832031 C 104.597656 132.628906 104.277344 131.144531 104.277344 129.371094 C 104.277344 127.640625 104.570313 126.15625 105.148438 124.914063 C 105.730469 123.675781 106.546875 122.722656 107.597656 122.050781 C 108.652344 121.382813 109.875 121.046875 111.273438 121.046875 "/>
<g clip-path="url(#clip2)" clip-rule="nonzero">
<path style=" stroke:none;fill-rule:nonzero;fill:rgb(0%,0%,0%);fill-opacity:1;" d="M 126.003906 123.234375 C 124.683594 123.234375 123.660156 123.757813 122.933594 124.8125 C 122.203125 125.863281 121.839844 127.367188 121.839844 129.3125 C 121.839844 131.261719 122.195313 132.753906 122.902344 133.785156 C 123.613281 134.820313 124.664063 135.335938 126.0625 135.335938 C 127.65625 135.335938 128.816406 134.90625 129.546875 134.050781 C 130.273438 133.195313 130.636719 131.8125 130.636719 129.902344 L 130.636719 129.285156 C 130.636719 127.140625 130.265625 125.59375 129.515625 124.648438 C 128.769531 123.707031 127.597656 123.234375 126.003906 123.234375 Z M 125.648438 121.046875 C 126.691406 121.046875 127.632813 121.246094 128.46875 121.640625 C 129.304688 122.03125 130.019531 122.632813 130.609375 123.441406 L 130.757813 123.441406 L 131.109375 121.34375 L 133.175781 121.34375 L 133.175781 137.429688 C 133.175781 139.695313 132.601563 141.394531 131.449219 142.539063 C 130.296875 143.679688 128.511719 144.25 126.09375 144.25 C 123.769531 144.25 121.871094 143.914063 120.394531 143.246094 L 120.394531 140.855469 C 121.949219 141.683594 123.898438 142.09375 126.238281 142.09375 C 127.597656 142.09375 128.664063 141.695313 129.441406 140.898438 C 130.21875 140.101563 130.609375 139.015625 130.609375 137.636719 L 130.609375 137.019531 C 130.609375 136.78125 130.617188 136.441406 130.636719 136 C 130.65625 135.558594 130.675781 135.246094 130.695313 135.070313 L 130.578125 135.070313 C 129.515625 136.664063 127.882813 137.460938 125.679688 137.460938 C 123.632813 137.460938 122.035156 136.742188 120.882813 135.304688 C 119.730469 133.871094 119.15625 131.863281 119.15625 129.285156 C 119.15625 126.765625 119.730469 124.761719 120.882813 123.277344 C 122.035156 121.792969 123.621094 121.046875 125.648438 121.046875 "/>
</g>
<path style=" stroke:none;fill-rule:nonzero;fill:rgb(0%,0%,0%);fill-opacity:1;" d="M 138.429688 121.34375 L 138.429688 137.167969 L 135.832031 137.167969 L 135.832031 121.34375 Z M 137.160156 115.410156 C 137.554688 115.410156 137.902344 115.542969 138.210938 115.808594 C 138.515625 116.074219 138.664063 116.492188 138.664063 117.0625 C 138.664063 117.632813 138.515625 118.050781 138.210938 118.316406 C 137.902344 118.585938 137.554688 118.714844 137.160156 118.714844 C 136.726563 118.714844 136.363281 118.585938 136.070313 118.316406 C 135.773438 118.050781 135.625 117.632813 135.625 117.0625 C 135.625 116.492188 135.773438 116.074219 136.070313 115.808594 C 136.363281 115.542969 136.726563 115.410156 137.160156 115.410156 "/>
<path style=" stroke:none;fill-rule:nonzero;fill:rgb(0%,0%,0%);fill-opacity:1;" d="M 142.886719 129.226563 C 142.886719 131.09375 143.257813 132.578125 143.996094 133.667969 C 144.734375 134.761719 145.910156 135.304688 147.523438 135.304688 C 149.117188 135.304688 150.289063 134.761719 151.035156 133.667969 C 151.78125 132.578125 152.15625 131.09375 152.15625 129.226563 C 152.15625 127.355469 151.78125 125.890625 151.035156 124.828125 C 150.289063 123.765625 149.105469 123.234375 147.492188 123.234375 C 145.878906 123.234375 144.707031 123.765625 143.980469 124.828125 C 143.253906 125.890625 142.886719 127.355469 142.886719 129.226563 Z M 154.84375 129.226563 C 154.84375 131.84375 154.179688 133.871094 152.851563 135.304688 C 151.523438 136.742188 149.726563 137.460938 147.464844 137.460938 C 146.066406 137.460938 144.820313 137.140625 143.730469 136.5 C 142.636719 135.863281 141.777344 134.925781 141.148438 133.695313 C 140.515625 132.46875 140.203125 130.976563 140.203125 129.226563 C 140.203125 126.609375 140.855469 124.589844 142.164063 123.171875 C 143.472656 121.757813 145.269531 121.046875 147.550781 121.046875 C 148.96875 121.046875 150.226563 121.367188 151.328125 122.007813 C 152.433594 122.648438 153.292969 123.574219 153.914063 124.78125 C 154.535156 125.992188 154.84375 127.472656 154.84375 129.226563 "/>
<path style=" stroke:none;fill-rule:nonzero;fill:rgb(0%,0%,0%);fill-opacity:1;" d="M 164.199219 121.046875 C 166.089844 121.046875 167.515625 121.511719 168.480469 122.4375 C 169.445313 123.359375 169.925781 124.835938 169.925781 126.863281 L 169.925781 137.167969 L 167.359375 137.167969 L 167.359375 127.039063 C 167.359375 124.503906 166.179688 123.234375 163.816406 123.234375 C 162.066406 123.234375 160.855469 123.726563 160.1875 124.710938 C 159.515625 125.691406 159.183594 127.109375 159.183594 128.960938 L 159.183594 137.167969 L 156.585938 137.167969 L 156.585938 121.34375 L 158.679688 121.34375 L 159.0625 123.5 L 159.210938 123.5 C 159.722656 122.671875 160.433594 122.058594 161.335938 121.652344 C 162.242188 121.25 163.195313 121.046875 164.199219 121.046875 "/>
<path style=" stroke:none;fill-rule:nonzero;fill:rgb(0%,0%,0%);fill-opacity:1;" d="M 182.148438 129.433594 L 179.816406 129.519531 C 177.847656 129.597656 176.484375 129.914063 175.726563 130.464844 C 174.96875 131.015625 174.589844 131.792969 174.589844 132.796875 C 174.589844 133.683594 174.859375 134.332031 175.402344 134.746094 C 175.941406 135.160156 176.636719 135.363281 177.484375 135.363281 C 178.800781 135.363281 179.910156 134.996094 180.804688 134.257813 C 181.699219 133.519531 182.148438 132.382813 182.148438 130.847656 Z M 179.046875 121.078125 C 180.976563 121.078125 182.402344 121.503906 183.328125 122.347656 C 184.253906 123.195313 184.714844 124.542969 184.714844 126.390625 L 184.714844 137.167969 L 182.824219 137.167969 L 182.324219 134.921875 L 182.207031 134.921875 C 181.515625 135.789063 180.789063 136.425781 180.023438 136.839844 C 179.253906 137.253906 178.210938 137.460938 176.894531 137.460938 C 175.457031 137.460938 174.265625 137.082031 173.320313 136.324219 C 172.375 135.566406 171.902344 134.382813 171.902344 132.765625 C 171.902344 131.191406 172.523438 129.976563 173.765625 129.121094 C 175.003906 128.265625 176.914063 127.796875 179.492188 127.71875 L 182.175781 127.632813 L 182.175781 126.6875 C 182.175781 125.367188 181.890625 124.453125 181.320313 123.941406 C 180.75 123.429688 179.941406 123.171875 178.898438 123.171875 C 178.074219 123.171875 177.285156 123.296875 176.539063 123.542969 C 175.789063 123.789063 175.09375 124.070313 174.441406 124.382813 L 173.644531 122.4375 C 174.335938 122.0625 175.152344 121.742188 176.097656 121.476563 C 177.039063 121.210938 178.023438 121.078125 179.046875 121.078125 "/>
<path style=" stroke:none;fill-rule:nonzero;fill:rgb(0%,0%,0%);fill-opacity:1;" d="M 189.851563 137.167969 L 187.253906 137.167969 L 187.253906 114.730469 L 189.851563 114.730469 L 189.851563 137.167969 "/>
<path style=" stroke:none;fill-rule:nonzero;fill:rgb(0%,0%,0%);fill-opacity:1;" d="M 208.976563 118.128906 C 206.714844 118.128906 204.933594 118.882813 203.636719 120.398438 C 202.335938 121.914063 201.6875 123.992188 201.6875 126.628906 C 201.6875 129.246094 202.292969 131.316406 203.503906 132.839844 C 204.714844 134.367188 206.527344 135.128906 208.949219 135.128906 C 209.855469 135.128906 210.71875 135.050781 211.546875 134.894531 C 212.371094 134.734375 213.1875 134.539063 213.996094 134.300781 L 213.996094 136.605469 C 213.210938 136.898438 212.398438 137.117188 211.5625 137.253906 C 210.726563 137.390625 209.726563 137.460938 208.566406 137.460938 C 206.421875 137.460938 204.628906 137.019531 203.191406 136.132813 C 201.757813 135.246094 200.679688 133.988281 199.960938 132.355469 C 199.242188 130.722656 198.882813 128.800781 198.882813 126.597656 C 198.882813 124.472656 199.273438 122.597656 200.050781 120.976563 C 200.828125 119.351563 201.972656 118.082031 203.488281 117.167969 C 205.003906 116.253906 206.84375 115.792969 209.007813 115.792969 C 211.230469 115.792969 213.171875 116.207031 214.824219 117.035156 L 213.761719 119.277344 C 213.109375 118.980469 212.386719 118.714844 211.589844 118.480469 C 210.792969 118.246094 209.921875 118.128906 208.976563 118.128906 "/>
<path style=" stroke:none;fill-rule:nonzero;fill:rgb(0%,0%,0%);fill-opacity:1;" d="M 222.558594 123.171875 C 221.316406 123.171875 220.339844 123.574219 219.621094 124.371094 C 218.902344 125.167969 218.472656 126.273438 218.335938 127.691406 L 226.394531 127.691406 C 226.375 126.351563 226.058594 125.265625 225.449219 124.429688 C 224.839844 123.59375 223.875 123.171875 222.558594 123.171875 Z M 222.585938 121.046875 C 223.925781 121.046875 225.085938 121.34375 226.070313 121.933594 C 227.054688 122.523438 227.804688 123.355469 228.328125 124.429688 C 228.847656 125.503906 229.109375 126.753906 229.109375 128.191406 L 229.109375 129.757813 L 218.277344 129.757813 C 218.316406 131.546875 218.773438 132.910156 219.648438 133.84375 C 220.523438 134.78125 221.75 135.246094 223.324219 135.246094 C 224.328125 135.246094 225.21875 135.152344 225.996094 134.964844 C 226.773438 134.78125 227.574219 134.507813 228.402344 134.15625 L 228.402344 136.425781 C 227.59375 136.78125 226.796875 137.042969 226.011719 137.210938 C 225.222656 137.375 224.289063 137.460938 223.207031 137.460938 C 221.691406 137.460938 220.363281 137.15625 219.222656 136.542969 C 218.078125 135.9375 217.1875 135.03125 216.550781 133.832031 C 215.910156 132.628906 215.589844 131.144531 215.589844 129.371094 C 215.589844 127.640625 215.882813 126.15625 216.460938 124.914063 C 217.039063 123.675781 217.859375 122.722656 218.910156 122.050781 C 219.964844 121.382813 221.1875 121.046875 222.585938 121.046875 "/>
<path style=" stroke:none;fill-rule:nonzero;fill:rgb(0%,0%,0%);fill-opacity:1;" d="M 238.96875 121.046875 C 240.859375 121.046875 242.285156 121.511719 243.25 122.4375 C 244.214844 123.359375 244.695313 124.835938 244.695313 126.863281 L 244.695313 137.167969 L 242.128906 137.167969 L 242.128906 127.039063 C 242.128906 124.503906 240.945313 123.234375 238.585938 123.234375 C 236.832031 123.234375 235.621094 123.726563 234.953125 124.710938 C 234.285156 125.691406 233.949219 127.109375 233.949219 128.960938 L 233.949219 137.167969 L 231.351563 137.167969 L 231.351563 121.34375 L 233.449219 121.34375 L 233.832031 123.5 L 233.980469 123.5 C 234.492188 122.671875 235.199219 122.058594 236.105469 121.652344 C 237.011719 121.25 237.964844 121.046875 238.96875 121.046875 "/>
<path style=" stroke:none;fill-rule:nonzero;fill:rgb(0%,0%,0%);fill-opacity:1;" d="M 253.109375 135.335938 C 253.5 135.335938 253.90625 135.304688 254.316406 135.246094 C 254.730469 135.1875 255.066406 135.109375 255.320313 135.011719 L 255.320313 136.988281 C 255.046875 137.125 254.652344 137.238281 254.140625 137.328125 C 253.628906 137.417969 253.136719 137.460938 252.664063 137.460938 C 251.839844 137.460938 251.074219 137.316406 250.378906 137.03125 C 249.679688 136.75 249.113281 136.25 248.679688 135.542969 C 248.246094 134.832031 248.03125 133.839844 248.03125 132.5625 L 248.03125 123.351563 L 245.789063 123.351563 L 245.789063 122.109375 L 248.058594 121.078125 L 249.09375 117.714844 L 250.628906 117.714844 L 250.628906 121.34375 L 255.203125 121.34375 L 255.203125 123.351563 L 250.628906 123.351563 L 250.628906 132.503906 C 250.628906 133.464844 250.859375 134.179688 251.320313 134.640625 C 251.785156 135.105469 252.378906 135.335938 253.109375 135.335938 "/>
<path style=" stroke:none;fill-rule:nonzero;fill:rgb(0%,0%,0%);fill-opacity:1;" d="M 264.679688 121.046875 C 264.972656 121.046875 265.289063 121.0625 265.621094 121.09375 C 265.957031 121.121094 266.261719 121.167969 266.539063 121.226563 L 266.214844 123.617188 C 265.957031 123.558594 265.671875 123.507813 265.359375 123.46875 C 265.042969 123.429688 264.757813 123.410156 264.503906 123.410156 C 263.695313 123.410156 262.9375 123.632813 262.230469 124.074219 C 261.519531 124.515625 260.953125 125.136719 260.53125 125.933594 C 260.109375 126.730469 259.898438 127.660156 259.898438 128.722656 L 259.898438 137.167969 L 257.300781 137.167969 L 257.300781 121.34375 L 259.425781 121.34375 L 259.71875 124.238281 L 259.839844 124.238281 C 260.328125 123.371094 260.984375 122.625 261.800781 121.992188 C 262.617188 121.363281 263.578125 121.046875 264.679688 121.046875 "/>
<path style=" stroke:none;fill-rule:nonzero;fill:rgb(0%,0%,0%);fill-opacity:1;" d="M 273.800781 123.171875 C 272.558594 123.171875 271.582031 123.574219 270.863281 124.371094 C 270.144531 125.167969 269.714844 126.273438 269.578125 127.691406 L 277.636719 127.691406 C 277.617188 126.351563 277.304688 125.265625 276.691406 124.429688 C 276.082031 123.59375 275.117188 123.171875 273.800781 123.171875 Z M 273.828125 121.046875 C 275.167969 121.046875 276.328125 121.34375 277.3125 121.933594 C 278.296875 122.523438 279.050781 123.355469 279.570313 124.429688 C 280.09375 125.503906 280.351563 126.753906 280.351563 128.191406 L 280.351563 129.757813 L 269.519531 129.757813 C 269.558594 131.546875 270.015625 132.910156 270.894531 133.84375 C 271.769531 134.78125 272.992188 135.246094 274.566406 135.246094 C 275.570313 135.246094 276.460938 135.152344 277.238281 134.964844 C 278.015625 134.78125 278.820313 134.507813 279.644531 134.15625 L 279.644531 136.425781 C 278.835938 136.78125 278.039063 137.042969 277.253906 137.210938 C 276.464844 137.375 275.53125 137.460938 274.449219 137.460938 C 272.933594 137.460938 271.605469 137.15625 270.464844 136.542969 C 269.324219 135.9375 268.433594 135.03125 267.792969 133.832031 C 267.152344 132.628906 266.832031 131.144531 266.832031 129.371094 C 266.832031 127.640625 267.125 126.15625 267.703125 124.914063 C 268.285156 123.675781 269.101563 122.722656 270.15625 122.050781 C 271.207031 121.382813 272.433594 121.046875 273.828125 121.046875 "/>
<path style=" stroke:none;fill-rule:nonzero;fill:rgb(0%,0%,0%);fill-opacity:1;" d="M 306.152344 137.167969 L 303.054688 137.167969 L 291.777344 119.660156 L 291.660156 119.660156 C 291.699219 120.351563 291.746094 121.207031 291.804688 122.230469 C 291.867188 123.253906 291.894531 124.304688 291.894531 125.386719 L 291.894531 137.167969 L 289.445313 137.167969 L 289.445313 116.089844 L 292.515625 116.089844 L 303.761719 133.535156 L 303.878906 133.535156 C 303.859375 133.21875 303.835938 132.746094 303.804688 132.117188 C 303.777344 131.488281 303.746094 130.804688 303.71875 130.066406 C 303.6875 129.328125 303.671875 128.632813 303.671875 127.984375 L 303.671875 116.089844 L 306.152344 116.089844 L 306.152344 137.167969 "/>
<path style=" stroke:none;fill-rule:nonzero;fill:rgb(0%,0%,0%);fill-opacity:1;" d="M 315.242188 123.171875 C 314.003906 123.171875 313.023438 123.574219 312.304688 124.371094 C 311.589844 125.167969 311.160156 126.273438 311.023438 127.691406 L 319.078125 127.691406 C 319.0625 126.351563 318.746094 125.265625 318.136719 124.429688 C 317.527344 123.59375 316.5625 123.171875 315.242188 123.171875 Z M 315.273438 121.046875 C 316.609375 121.046875 317.773438 121.34375 318.757813 121.933594 C 319.738281 122.523438 320.492188 123.355469 321.015625 124.429688 C 321.535156 125.503906 321.796875 126.753906 321.796875 128.191406 L 321.796875 129.757813 L 310.964844 129.757813 C 311.003906 131.546875 311.460938 132.910156 312.335938 133.84375 C 313.210938 134.78125 314.4375 135.246094 316.011719 135.246094 C 317.015625 135.246094 317.90625 135.152344 318.683594 134.964844 C 319.460938 134.78125 320.261719 134.507813 321.089844 134.15625 L 321.089844 136.425781 C 320.28125 136.78125 319.484375 137.042969 318.699219 137.210938 C 317.910156 137.375 316.976563 137.460938 315.894531 137.460938 C 314.378906 137.460938 313.050781 137.15625 311.90625 136.542969 C 310.765625 135.9375 309.875 135.03125 309.238281 133.832031 C 308.597656 132.628906 308.277344 131.144531 308.277344 129.371094 C 308.277344 127.640625 308.566406 126.15625 309.148438 124.914063 C 309.726563 123.675781 310.546875 122.722656 311.597656 122.050781 C 312.652344 121.382813 313.875 121.046875 315.273438 121.046875 "/>
<path style=" stroke:none;fill-rule:nonzero;fill:rgb(0%,0%,0%);fill-opacity:1;" d="M 328.734375 135.335938 C 329.128906 135.335938 329.53125 135.304688 329.945313 135.246094 C 330.355469 135.1875 330.691406 135.109375 330.949219 135.011719 L 330.949219 136.988281 C 330.671875 137.125 330.277344 137.238281 329.765625 137.328125 C 329.253906 137.417969 328.761719 137.460938 328.289063 137.460938 C 327.464844 137.460938 326.703125 137.316406 326.003906 137.03125 C 325.304688 136.75 324.738281 136.25 324.304688 135.542969 C 323.871094 134.832031 323.65625 133.839844 323.65625 132.5625 L 323.65625 123.351563 L 321.414063 123.351563 L 321.414063 122.109375 L 323.6875 121.078125 L 324.71875 117.714844 L 326.253906 117.714844 L 326.253906 121.34375 L 330.828125 121.34375 L 330.828125 123.351563 L 326.253906 123.351563 L 326.253906 132.503906 C 326.253906 133.464844 326.484375 134.179688 326.949219 134.640625 C 327.410156 135.105469 328.003906 135.335938 328.734375 135.335938 "/>
<path style=" stroke:none;fill-rule:nonzero;fill:rgb(0%,0%,0%);fill-opacity:1;" d="M 345.855469 137.136719 L 343.136719 128.222656 C 342.882813 127.414063 342.65625 126.628906 342.460938 125.859375 C 342.261719 125.09375 342.125 124.484375 342.046875 124.03125 L 341.925781 124.03125 C 341.847656 124.484375 341.722656 125.09375 341.542969 125.859375 C 341.367188 126.628906 341.140625 127.421875 340.863281 128.253906 L 338.03125 137.136719 L 335.078125 137.136719 L 330.738281 121.3125 L 333.425781 121.3125 L 335.609375 129.757813 C 335.828125 130.601563 336.035156 131.460938 336.230469 132.324219 C 336.425781 133.191406 336.566406 133.910156 336.644531 134.480469 L 336.761719 134.480469 C 336.820313 134.144531 336.910156 133.730469 337.027344 133.238281 C 337.144531 132.746094 337.273438 132.230469 337.410156 131.691406 C 337.546875 131.148438 337.6875 130.660156 337.824219 130.230469 L 340.628906 121.3125 L 343.460938 121.3125 L 346.179688 130.230469 C 346.375 130.917969 346.582031 131.65625 346.796875 132.441406 C 347.015625 133.230469 347.164063 133.898438 347.242188 134.449219 L 347.359375 134.449219 C 347.417969 133.960938 347.550781 133.277344 347.757813 132.414063 C 347.964844 131.546875 348.1875 130.660156 348.421875 129.757813 L 350.636719 121.3125 L 353.292969 121.3125 L 348.894531 137.136719 L 345.855469 137.136719 "/>
<path style=" stroke:none;fill-rule:nonzero;fill:rgb(0%,0%,0%);fill-opacity:1;" d="M 355.566406 129.226563 C 355.566406 131.09375 355.933594 132.578125 356.671875 133.667969 C 357.410156 134.761719 358.585938 135.304688 360.199219 135.304688 C 361.792969 135.304688 362.964844 134.761719 363.710938 133.667969 C 364.460938 132.578125 364.832031 131.09375 364.832031 129.226563 C 364.832031 127.355469 364.460938 125.890625 363.710938 124.828125 C 362.964844 123.765625 361.785156 123.234375 360.167969 123.234375 C 358.554688 123.234375 357.386719 123.765625 356.65625 124.828125 C 355.929688 125.890625 355.566406 127.355469 355.566406 129.226563 Z M 367.519531 129.226563 C 367.519531 131.84375 366.855469 133.871094 365.527344 135.304688 C 364.199219 136.742188 362.402344 137.460938 360.140625 137.460938 C 358.742188 137.460938 357.496094 137.140625 356.40625 136.5 C 355.3125 135.863281 354.453125 134.925781 353.824219 133.695313 C 353.195313 132.46875 352.878906 130.976563 352.878906 129.226563 C 352.878906 126.609375 353.53125 124.589844 354.84375 123.171875 C 356.148438 121.757813 357.945313 121.046875 360.230469 121.046875 C 361.644531 121.046875 362.90625 121.367188 364.007813 122.007813 C 365.109375 122.648438 365.96875 123.574219 366.589844 124.78125 C 367.210938 125.992188 367.519531 127.472656 367.519531 129.226563 "/>
<path style=" stroke:none;fill-rule:nonzero;fill:rgb(0%,0%,0%);fill-opacity:1;" d="M 376.640625 121.046875 C 376.9375 121.046875 377.25 121.0625 377.585938 121.09375 C 377.921875 121.121094 378.226563 121.167969 378.5 121.226563 L 378.175781 123.617188 C 377.921875 123.558594 377.632813 123.507813 377.320313 123.46875 C 377.003906 123.429688 376.71875 123.410156 376.464844 123.410156 C 375.65625 123.410156 374.898438 123.632813 374.191406 124.074219 C 373.484375 124.515625 372.914063 125.136719 372.492188 125.933594 C 372.070313 126.730469 371.859375 127.660156 371.859375 128.722656 L 371.859375 137.167969 L 369.261719 137.167969 L 369.261719 121.34375 L 371.386719 121.34375 L 371.683594 124.238281 L 371.800781 124.238281 C 372.289063 123.371094 372.945313 122.625 373.761719 121.992188 C 374.578125 121.363281 375.539063 121.046875 376.640625 121.046875 "/>
<g clip-path="url(#clip3)" clip-rule="nonzero">
<path style=" stroke:none;fill-rule:nonzero;fill:rgb(0%,0%,0%);fill-opacity:1;" d="M 382.25 114.730469 L 382.25 126.453125 C 382.25 126.765625 382.234375 127.179688 382.203125 127.691406 C 382.175781 128.203125 382.152344 128.644531 382.132813 129.019531 L 382.25 129.019531 C 382.367188 128.859375 382.542969 128.632813 382.78125 128.339844 C 383.015625 128.042969 383.257813 127.746094 383.503906 127.4375 C 383.75 127.132813 383.960938 126.882813 384.140625 126.6875 L 389.1875 121.34375 L 392.226563 121.34375 L 385.820313 128.101563 L 392.667969 137.167969 L 389.539063 137.167969 L 384.050781 129.785156 L 382.25 131.351563 L 382.25 137.167969 L 379.679688 137.167969 L 379.679688 114.730469 L 382.25 114.730469 "/>
</g>
<path style=" stroke:none;fill-rule:nonzero;fill:rgb(0%,0%,0%);fill-opacity:1;" d="M 3.613281 70.222656 C 8.292969 72.347656 13.644531 73.421875 19.53125 73.421875 C 26.34375 73.421875 31.636719 71.902344 35.269531 68.90625 C 38.882813 65.925781 40.640625 62.03125 40.640625 56.992188 C 40.640625 54.046875 40.089844 51.5625 39.007813 49.605469 C 37.914063 47.625 36.332031 45.875 34.3125 44.402344 C 32.199219 42.867188 29.59375 41.363281 26.5625 39.929688 C 22.726563 38.101563 19.789063 36.527344 17.832031 35.261719 C 15.535156 33.777344 14.371094 31.707031 14.371094 29.109375 C 14.371094 26.929688 15.175781 25.121094 16.757813 23.746094 C 18.289063 22.414063 20.453125 21.742188 23.1875 21.742188 C 25.613281 21.742188 28.015625 22.070313 30.328125 22.722656 C 32.261719 23.269531 34.429688 24.011719 36.785156 24.941406 L 40 17.199219 C 37.308594 16.097656 34.722656 15.222656 32.308594 14.59375 C 29.585938 13.886719 26.660156 13.53125 23.613281 13.53125 C 17.59375 13.53125 12.796875 14.964844 9.359375 17.792969 C 5.949219 20.601563 4.292969 24.441406 4.292969 29.535156 C 4.292969 32.109375 4.734375 34.328125 5.609375 36.128906 C 6.5 37.964844 7.652344 39.539063 9.03125 40.816406 C 10.453125 42.132813 11.964844 43.246094 13.519531 44.132813 C 15.132813 45.050781 16.652344 45.851563 18.03125 46.515625 C 20.308594 47.597656 22.355469 48.621094 24.113281 49.554688 C 25.972656 50.546875 27.492188 51.640625 28.628906 52.804688 C 29.910156 54.121094 30.558594 55.726563 30.558594 57.585938 C 30.558594 59.8125 29.75 61.683594 28.152344 63.140625 C 26.570313 64.59375 24.082031 65.296875 20.550781 65.296875 C 17.367188 65.296875 14.128906 64.746094 10.925781 63.660156 C 8.445313 62.816406 5.992188 61.898438 3.613281 60.914063 Z M 19.53125 75.921875 C 12.96875 75.921875 7.007813 74.652344 1.816406 72.144531 C 1.386719 71.933594 1.113281 71.496094 1.113281 71.019531 L 1.113281 59.03125 C 1.113281 58.609375 1.324219 58.21875 1.675781 57.988281 C 2.023438 57.753906 2.46875 57.71875 2.855469 57.882813 C 5.714844 59.117188 8.699219 60.261719 11.730469 61.292969 C 14.671875 62.289063 17.640625 62.796875 20.550781 62.796875 C 23.390625 62.796875 25.378906 62.292969 26.464844 61.296875 C 27.535156 60.316406 28.058594 59.101563 28.058594 57.585938 C 28.058594 56.386719 27.660156 55.390625 26.839844 54.546875 C 25.882813 53.570313 24.570313 52.632813 22.941406 51.761719 C 21.214844 50.84375 19.203125 49.839844 16.957031 48.769531 C 15.515625 48.078125 13.945313 47.25 12.285156 46.304688 C 10.5625 45.324219 8.894531 44.097656 7.335938 42.652344 C 5.726563 41.164063 4.390625 39.339844 3.363281 37.222656 C 2.320313 35.078125 1.792969 32.492188 1.792969 29.535156 C 1.792969 23.730469 3.804688 19.128906 7.773438 15.863281 C 11.667969 12.65625 17 11.03125 23.613281 11.03125 C 26.875 11.03125 30.011719 11.414063 32.9375 12.175781 C 35.8125 12.921875 38.90625 14.003906 42.125 15.382813 C 42.753906 15.648438 43.050781 16.378906 42.785156 17.007813 L 38.621094 27.039063 C 38.359375 27.675781 37.632813 27.976563 36.996094 27.71875 C 34.273438 26.605469 31.800781 25.734375 29.648438 25.128906 C 27.558594 24.539063 25.386719 24.242188 23.1875 24.242188 C 21.070313 24.242188 19.460938 24.710938 18.398438 25.632813 C 17.371094 26.527344 16.871094 27.664063 16.871094 29.109375 C 16.871094 30.828125 17.628906 32.152344 19.191406 33.160156 C 21.058594 34.371094 23.902344 35.890625 27.636719 37.671875 C 30.804688 39.171875 33.542969 40.753906 35.78125 42.378906 C 38.101563 44.070313 39.925781 46.09375 41.199219 48.398438 C 42.484375 50.730469 43.140625 53.621094 43.140625 56.992188 C 43.140625 62.742188 41.027344 67.398438 36.859375 70.835938 C 32.769531 74.210938 26.9375 75.921875 19.53125 75.921875 "/>
<path style=" stroke:none;fill-rule:nonzero;fill:rgb(0%,0%,0%);fill-opacity:1;" d="M 65.324219 38.824219 L 68.238281 38.824219 C 72.1875 38.824219 75.007813 38.199219 76.613281 36.960938 C 78.144531 35.78125 78.890625 34.050781 78.890625 31.660156 C 78.890625 29.214844 78.109375 27.546875 76.507813 26.5625 C 74.734375 25.472656 71.867188 24.921875 67.984375 24.921875 L 65.324219 24.921875 Z M 68.238281 41.324219 L 64.074219 41.324219 C 63.382813 41.324219 62.824219 40.765625 62.824219 40.074219 L 62.824219 23.671875 C 62.824219 22.980469 63.382813 22.421875 64.074219 22.421875 L 67.984375 22.421875 C 72.398438 22.421875 75.613281 23.078125 77.816406 24.433594 C 80.1875 25.890625 81.390625 28.320313 81.390625 31.660156 C 81.390625 34.835938 80.296875 37.285156 78.140625 38.941406 C 76.054688 40.546875 72.816406 41.324219 68.238281 41.324219 Z M 86.105469 72.574219 L 97.339844 72.574219 L 80.804688 48.085938 C 80.597656 47.78125 80.535156 47.402344 80.636719 47.046875 C 80.738281 46.695313 80.988281 46.402344 81.320313 46.25 C 83.1875 45.394531 84.96875 44.269531 86.605469 42.898438 C 88.195313 41.570313 89.492188 39.929688 90.457031 38.023438 C 91.410156 36.140625 91.894531 33.886719 91.894531 31.320313 C 91.894531 25.5625 90.125 21.410156 86.480469 18.628906 C 82.78125 15.808594 76.871094 14.378906 68.917969 14.378906 L 52.488281 14.378906 L 52.488281 72.574219 L 62.824219 72.574219 L 62.824219 50.53125 C 62.824219 49.839844 63.382813 49.28125 64.074219 49.28125 L 70.960938 49.28125 C 71.390625 49.28125 71.792969 49.503906 72.019531 49.871094 Z M 99.691406 75.074219 L 85.410156 75.074219 C 84.976563 75.074219 84.578125 74.847656 84.347656 74.480469 L 70.265625 51.78125 L 65.324219 51.78125 L 65.324219 73.824219 C 65.324219 74.511719 64.765625 75.074219 64.074219 75.074219 L 51.238281 75.074219 C 50.546875 75.074219 49.988281 74.511719 49.988281 73.824219 L 49.988281 13.128906 C 49.988281 12.4375 50.546875 11.878906 51.238281 11.878906 L 68.917969 11.878906 C 77.433594 11.878906 83.851563 13.480469 87.996094 16.640625 C 92.242188 19.878906 94.394531 24.820313 94.394531 31.320313 C 94.394531 34.285156 93.820313 36.921875 92.6875 39.152344 C 91.566406 41.363281 90.058594 43.269531 88.210938 44.816406 C 86.785156 46.007813 85.269531 47.03125 83.675781 47.875 L 100.726563 73.121094 C 100.984375 73.507813 101.011719 74 100.796875 74.410156 C 100.578125 74.816406 100.152344 75.074219 99.691406 75.074219 "/>
<path style=" stroke:none;fill-rule:nonzero;fill:rgb(0%,0%,0%);fill-opacity:1;" d="M 129.695313 13.53125 C 123.84375 13.53125 118.847656 14.808594 114.851563 17.332031 C 110.851563 19.855469 107.761719 23.394531 105.664063 27.855469 C 103.546875 32.371094 102.46875 37.65625 102.46875 43.5625 C 102.46875 49.601563 103.410156 54.949219 105.265625 59.449219 C 107.082031 63.859375 109.925781 67.328125 113.710938 69.753906 C 117.507813 72.1875 122.484375 73.421875 128.507813 73.421875 C 131.640625 73.421875 134.503906 73.171875 137.019531 72.679688 C 139.285156 72.238281 141.597656 71.566406 143.914063 70.675781 L 143.914063 62.480469 C 141.605469 63.246094 139.40625 63.867188 137.367188 64.332031 C 134.796875 64.914063 132.214844 65.210938 129.695313 65.210938 C 123.953125 65.210938 119.703125 63.242188 117.058594 59.351563 C 114.519531 55.617188 113.230469 50.332031 113.230469 43.644531 C 113.230469 37.011719 114.621094 31.675781 117.367188 27.792969 C 120.210938 23.777344 124.359375 21.742188 129.695313 21.742188 C 132.035156 21.742188 134.445313 22.164063 136.863281 22.996094 C 138.785156 23.664063 140.71875 24.4375 142.625 25.296875 L 145.859375 17.175781 C 143.484375 16.136719 140.996094 15.285156 138.441406 14.640625 C 135.523438 13.902344 132.582031 13.53125 129.695313 13.53125 Z M 128.507813 75.921875 C 122 75.921875 116.566406 74.554688 112.359375 71.855469 C 108.136719 69.152344 104.96875 65.296875 102.953125 60.402344 C 100.972656 55.597656 99.96875 49.929688 99.96875 43.5625 C 99.96875 37.285156 101.125 31.644531 103.402344 26.792969 C 105.707031 21.894531 109.109375 17.996094 113.515625 15.21875 C 117.921875 12.4375 123.363281 11.03125 129.695313 11.03125 C 132.785156 11.03125 135.9375 11.429688 139.054688 12.214844 C 142.152344 12.996094 145.15625 14.066406 147.992188 15.398438 C 148.59375 15.679688 148.867188 16.378906 148.621094 16.992188 L 144.457031 27.449219 C 144.328125 27.769531 144.074219 28.023438 143.753906 28.148438 C 143.433594 28.273438 143.070313 28.261719 142.761719 28.113281 C 140.550781 27.066406 138.289063 26.140625 136.042969 25.359375 C 133.890625 24.617188 131.757813 24.242188 129.695313 24.242188 C 125.152344 24.242188 121.789063 25.875 119.410156 29.238281 C 116.96875 32.6875 115.730469 37.539063 115.730469 43.644531 C 115.730469 49.824219 116.871094 54.632813 119.128906 57.945313 C 121.308594 61.152344 124.765625 62.710938 129.695313 62.710938 C 132.027344 62.710938 134.425781 62.4375 136.8125 61.894531 C 139.246094 61.339844 141.914063 60.554688 144.75 59.554688 C 145.132813 59.417969 145.558594 59.476563 145.886719 59.710938 C 146.21875 59.945313 146.414063 60.328125 146.414063 60.730469 L 146.414063 71.527344 C 146.414063 72.035156 146.105469 72.496094 145.636719 72.6875 C 142.910156 73.789063 140.175781 74.613281 137.5 75.132813 C 134.828125 75.65625 131.800781 75.921875 128.507813 75.921875 "/>
<path style=" stroke:none;fill-rule:nonzero;fill:rgb(0%,0%,0%);fill-opacity:1;" d="M 245.894531 73.824219 L 229.574219 73.824219 L 203.140625 27.921875 L 202.800781 27.921875 C 202.910156 30.8125 203.039063 33.699219 203.179688 36.589844 C 203.320313 39.480469 203.449219 42.371094 203.5625 45.261719 L 203.5625 73.824219 L 192.089844 73.824219 L 192.089844 13.128906 L 208.324219 13.128906 L 234.675781 58.605469 L 234.929688 58.605469 C 234.816406 55.832031 234.703125 53.054688 234.589844 50.277344 C 234.476563 47.5 234.390625 44.695313 234.335938 41.859375 L 234.335938 13.128906 L 245.894531 13.128906 L 245.894531 73.824219 "/>
<path style=" stroke:none;fill-rule:nonzero;fill:rgb(0%,0%,0%);fill-opacity:1;" d="M 273.4375 35.570313 C 270.941406 35.570313 268.902344 36.363281 267.316406 37.949219 C 265.730469 39.539063 264.792969 42.003906 264.511719 45.347656 L 282.277344 45.347656 C 282.21875 42.570313 281.46875 40.246094 280.023438 38.378906 C 278.578125 36.507813 276.382813 35.570313 273.4375 35.570313 Z M 273.351563 26.558594 C 279.753906 26.558594 284.828125 28.386719 288.566406 32.042969 C 292.308594 35.699219 294.175781 40.898438 294.175781 47.640625 L 294.175781 53.761719 L 264.257813 53.761719 C 264.367188 57.332031 265.429688 60.136719 267.445313 62.175781 C 269.453125 64.21875 272.246094 65.238281 275.816406 65.238281 C 278.761719 65.238281 281.46875 64.941406 283.933594 64.34375 C 286.398438 63.75 288.933594 62.828125 291.542969 61.582031 L 291.542969 71.359375 C 289.21875 72.492188 286.808594 73.328125 284.316406 73.867188 C 281.824219 74.402344 278.789063 74.671875 275.222656 74.671875 C 270.574219 74.671875 266.464844 73.808594 262.894531 72.082031 C 259.324219 70.351563 256.519531 67.746094 254.480469 64.261719 C 252.441406 60.773438 251.421875 56.339844 251.421875 50.957031 C 251.421875 45.574219 252.339844 41.066406 254.183594 37.441406 C 256.023438 33.816406 258.589844 31.09375 261.875 29.28125 C 265.160156 27.46875 268.988281 26.558594 273.351563 26.558594 "/>
<path style=" stroke:none;fill-rule:nonzero;fill:rgb(0%,0%,0%);fill-opacity:1;" d="M 321.464844 64.558594 C 322.878906 64.558594 324.238281 64.429688 325.542969 64.175781 C 326.847656 63.917969 328.148438 63.566406 329.453125 63.113281 L 329.453125 72.546875 C 328.09375 73.171875 326.40625 73.683594 324.394531 74.078125 C 322.382813 74.472656 320.1875 74.671875 317.808594 74.671875 C 315.03125 74.671875 312.550781 74.21875 310.371094 73.3125 C 308.1875 72.40625 306.460938 70.847656 305.183594 68.636719 C 303.910156 66.425781 303.273438 63.3125 303.273438 59.285156 L 303.273438 36.929688 L 297.238281 36.929688 L 297.238281 31.574219 L 304.207031 27.324219 L 307.863281 17.550781 L 315.9375 17.550781 L 315.9375 27.410156 L 328.941406 27.410156 L 328.941406 36.929688 L 315.9375 36.929688 L 315.9375 59.285156 C 315.9375 61.042969 316.449219 62.363281 317.46875 63.238281 C 318.488281 64.117188 319.820313 64.558594 321.464844 64.558594 "/>
<path style=" stroke:none;fill-rule:nonzero;fill:rgb(0%,0%,0%);fill-opacity:1;" d="M 169.308594 83.863281 L 166.804688 83.863281 L 166.804688 0.00390625 L 169.308594 0.00390625 L 169.308594 83.863281 "/>
</g>
</svg>
